<svg width="115" height="293" viewBox="0 0 115 293" fill="none" xmlns="http://www.w3.org/2000/svg">
<path d="M3.8717 11.4943C-1.55879 17.5113 -1.06702 26.7788 4.97035 32.1937C11.0112 37.6052 20.3097 37.1145 25.7402 31.0975C31.1741 25.0805 30.6789 15.8096 24.645 10.3981C18.6041 4.98312 9.30219 5.47381 3.8717 11.4943ZM14.1886 52.8479C18.4158 52.225 22.4442 50.645 25.8204 48.028L37.0197 39.3348C42.7955 34.8525 46.7681 28.3691 47.8179 21.1445C48.0655 19.4254 48.5085 17.7097 49.1572 16.0219C54.0157 3.36489 68.5144 -2.78786 81.1193 2.69324C92.3709 7.58621 98.1049 20.3963 94.2509 32.0128C89.0645 47.6626 75.075 48.3273 66.6554 47.0884C61.9295 46.3959 57.1303 47.6905 53.36 50.6172L43.9046 57.9532C38.0137 62.5225 38.1776 71.4489 44.2255 75.8059L51.2429 80.8589C59.502 86.8029 69.8154 88.9675 79.8602 87.2623C84.9698 86.3957 90.3724 86.8412 95.5658 88.8213C111.25 94.8036 118.986 112.496 112.576 128.073C106.629 142.526 89.211 150.154 74.503 144.756C63.8443 140.845 56.778 131.56 55.2085 121.141C53.6983 111.139 48.362 102.108 40.1343 96.1851L26.8144 86.5941C23.2882 84.0536 19.1726 82.418 14.8478 81.983C13.5747 81.8577 12.3052 81.5619 11.0566 81.0851C5.55281 78.9867 2.04409 73.951 1.63254 68.4595L1.60463 66.8169C1.66393 65.2543 1.97085 63.6709 2.56378 62.1292C4.53438 56.9927 9.08944 53.5961 14.1886 52.8479Z" fill="url(#paint0_linear_1_18)"/>
<path d="M84.6036 263.588C79.1731 269.605 79.6649 278.872 85.7057 284.287C91.7396 289.699 101.042 289.208 106.472 283.191C111.906 277.171 111.414 267.907 105.373 262.492C99.336 257.077 90.0376 257.567 84.6036 263.588ZM97.3759 243.633C93.1208 244.037 89.0156 245.415 85.5104 247.855L73.8786 255.967C67.8796 260.15 63.5792 266.421 62.1631 273.583C61.8248 275.284 61.2947 276.979 60.5588 278.629C55.0585 291.021 40.2633 296.426 27.9584 290.311C16.9718 284.851 11.904 271.766 16.344 260.358C22.3256 244.997 36.3325 245.043 44.6788 246.71C49.3629 247.646 54.2249 246.598 58.1382 243.866L67.9598 237.021C74.0739 232.758 74.3739 223.835 68.5563 219.175L61.8074 213.774C53.8657 207.413 43.6709 204.73 33.5563 205.92C28.4048 206.522 23.0371 205.802 17.9519 203.56C2.59164 196.785 -4.22699 178.723 2.9753 163.494C9.65791 149.362 27.4422 142.631 41.8537 148.77C52.3031 153.221 58.8776 162.854 59.917 173.343C60.9075 183.407 65.773 192.699 73.6868 199.033L86.4975 209.292C89.8841 212.006 93.9125 213.847 98.213 214.502C99.472 214.697 100.728 215.055 101.948 215.594C107.337 217.971 110.588 223.177 110.713 228.683L110.661 230.326C110.518 231.885 110.131 233.451 109.458 234.957C107.225 239.99 102.503 243.146 97.3759 243.633Z" fill="url(#paint1_linear_1_18)"/>
<defs>
<linearGradient id="paint0_linear_1_18" x1="15.4764" y1="0.683594" x2="68.1115" y2="283.375" gradientUnits="userSpaceOnUse">
<stop stop-color="#30AB4C"/>
<stop offset="0.853177" stop-opacity="0"/>
</linearGradient>
<linearGradient id="paint1_linear_1_18" x1="15.4764" y1="0.683594" x2="68.1115" y2="283.375" gradientUnits="userSpaceOnUse">
<stop stop-color="#30AB4C"/>
<stop offset="0.853177" stop-opacity="0"/>
</linearGradient>
</defs>
</svg>
